<svg xmlns="http://www.w3.org/2000/svg" width="612" height="612" viewBox="0 0 612 612">
  <defs>
    <style>
      .cls-1 {
        fill: #4e4d4e;
        fill-rule: evenodd;
      }
    </style>
  </defs>
  <path class="cls-1" d="M0,0V612H612V0H0ZM338.726,400.335c-26.324,0-51.077-14.145-59.489-30.34,0,0-14.144,56.076-17.1,66.957-10.545,38.249-41.6,76.5-43.962,79.6a3.257,3.257,0,0,1-5.816-1.38c-0.648-4.918-8.58-53.126.733-92.443l31.3-132.659s-7.762-15.526-7.762-38.5c0-36.114,20.923-63.024,47-63.024,22.158,0,32.788,16.594,32.788,36.555,0,22.221-14.145,55.575-21.49,86.374-6.067,25.841,12.91,46.849,38.4,46.849,46.179,0,77.167-59.173,77.167-129.31,0-53.378-35.883-93.343-101.271-93.343-73.8,0-119.811,55.093-119.811,116.547,0,21.259,6.277,36.22,16.09,47.749,4.5,5.4,5.064,7.512,3.515,13.642-1.233,4.5-3.85,15.211-5.064,19.542-1.548,6.133-6.633,8.329-12.177,6.048C157.857,325.3,142,288.1,142,246.164c0-69.129,58.191-152.01,173.922-152.01C408.863,94.154,470,161.424,470,233.592,470,329.047,416.96,400.335,338.726,400.335Z"/>
</svg>
