<svg xmlns="http://www.w3.org/2000/svg" width="612" height="612" viewBox="0 0 612 612">
  <defs>
    <style>
      .cls-1 {
        fill: #4e4d4e;
        fill-rule: evenodd;
      }
    </style>
  </defs>
  <path class="cls-1" d="M0,0V612H612V0H0ZM458.8,338.587c14.049,13.706,28.905,26.61,41.514,41.763,5.572,6.695,10.841,13.6,14.858,21.36,5.7,11.115.534,23.294-9.395,23.965l-61.705-.027c-15.926,1.309-28.618-5.113-39.322-16.008-8.512-8.676-16.468-17.962-24.685-26.933a58.1,58.1,0,0,0-11.082-9.9c-8.429-5.462-15.741-3.8-20.559,4.975-4.9,8.944-6.051,18.872-6.5,28.831-0.671,14.536-5.058,18.339-19.648,19.038-31.215,1.447-60.82-3.3-88.314-19.01-24.281-13.865-43.072-33.464-59.43-55.626-31.881-43.209-56.3-90.645-78.22-139.447-4.955-11-1.336-16.892,10.758-17.1,20.163-.4,40.317-0.349,60.452-0.026,8.19,0.137,13.624,4.817,16.756,12.554,10.9,26.775,24.225,52.256,40.955,75.9,4.474,6.29,9.025,12.554,15.473,17,7.148,4.927,12.61,3.317,15.981-4.688a51.638,51.638,0,0,0,3.536-15.926c1.6-18.607,1.8-37.233-.966-55.784-1.714-11.6-8.271-19.093-19.833-21.286-5.894-1.124-5.01-3.29-2.172-6.668,4.982-5.8,9.67-9.424,18.956-9.424h69.736c11,2.145,13.466,7.1,14.96,18.154l0.055,77.5c-0.13,4.283,2.146,16.968,9.827,19.778,6.155,2.035,10.252-2.92,13.947-6.826,16.7-17.723,28.618-38.679,39.266-60.362,4.715-9.533,8.786-19.435,12.747-29.346,2.919-7.333,7.47-10.944,15.741-10.814l67.141,0.082a36.938,36.938,0,0,1,5.969.322c11.293,1.953,14.4,6.826,10.889,17.88-5.482,17.317-16.221,31.776-26.685,46.257-11.22,15.5-23.156,30.462-34.292,46.046C445.33,319.049,446.132,326.223,458.8,338.587Z"/>
</svg>
